<svg width="154" height="17" viewBox="0 0 154 17" fill="none" xmlns="http://www.w3.org/2000/svg">
<g clip-path="url(#clip0_1_129)">
<path fill-rule="evenodd" clip-rule="evenodd" d="M69.137 0.52298L72.953 9.72798L76.769 0.52298H79.494L73.246 15.62L72.953 15.914L72.659 15.62L66.411 0.52298H69.137ZM55.425 0.52298C56.893 0.52298 58.285 1.28998 59.052 2.40998L57.585 3.87798H57.123C56.819 3.22798 56.15 2.82998 55.425 2.82998C54.562 2.82998 53.753 3.53998 53.705 4.44398C53.67 5.12398 53.982 5.54898 54.545 5.91198C55.151 6.30298 55.399 6.46598 56.222 6.91798C57.119 7.41098 59.388 8.37798 59.388 10.923C59.388 13.432 57.291 15.766 54.586 15.766C54.239 15.766 53.61 15.727 53.14 15.619C51.815 15.298 51.011 14.797 50.142 13.774L52.029 11.845L52.679 12.39C52.972 12.62 53.616 13.083 54.229 13.166C55.475 13.335 56.311 12.511 56.473 11.698C56.602 11.056 56.439 10.098 55.404 9.60198C55.404 9.60198 53.538 8.56498 52.72 8.09198C51.887 7.60998 51.001 6.29398 51.001 4.71698C51.001 3.54298 51.539 2.40598 52.406 1.61398C53.076 0.99998 53.995 0.52298 55.425 0.52298ZM140.17 0.22998L149.94 9.99998V0.81698L150.234 0.52298H152.163L152.457 0.81698V15.619H151.995L142.393 6.01698V15.326L142.099 15.619H140.17L139.877 15.326V0.52298L140.17 0.22998ZM111.363 0.52298V2.74598L111.069 3.03898H108.847V15.619H106.331V3.03898H103.815V0.81698L104.109 0.52298H111.363ZM120.588 0.52298V2.74598L120.294 3.03898H118.072V15.619H115.556V3.03898H113.04V0.81698L113.334 0.52298H120.588ZM4.016 0.52298V13.103H9.048V15.619H1.5V0.81698L1.793 0.52298H4.016ZM18.273 0.52298C20.2749 0.52298 22.1947 1.31821 23.6102 2.73374C25.0258 4.14926 25.821 6.06913 25.821 8.07098C25.821 10.0728 25.0258 11.9927 23.6102 13.4082C22.1947 14.8237 20.2749 15.619 18.273 15.619C16.2711 15.619 14.3513 14.8237 12.9358 13.4082C11.5202 11.9927 10.725 10.0728 10.725 8.07098C10.725 6.06913 11.5202 4.14926 12.9358 2.73374C14.3513 1.31821 16.2711 0.52298 18.273 0.52298ZM129.813 0.52298C131.815 0.52298 133.735 1.31821 135.15 2.73374C136.566 4.14926 137.361 6.06913 137.361 8.07098C137.361 10.0728 136.566 11.9927 135.15 13.4082C133.735 14.8237 131.815 15.619 129.813 15.619C127.811 15.619 125.891 14.8237 124.476 13.4082C123.06 11.9927 122.265 10.0728 122.265 8.07098C122.265 6.06913 123.06 4.14926 124.476 2.73374C125.891 1.31821 127.811 0.52298 129.813 0.52298ZM31.398 0.52298L31.691 0.81698V10.587C31.691 11.2543 31.9561 11.8942 32.4279 12.3661C32.8998 12.8379 33.5397 13.103 34.207 13.103C34.8743 13.103 35.5142 12.8379 35.9861 12.3661C36.4579 11.8942 36.723 11.2543 36.723 10.587V0.81698L37.017 0.52298H38.946L39.239 0.81698V10.587C39.239 11.9215 38.7088 13.2015 37.7652 14.1451C36.8215 15.0888 35.5416 15.619 34.207 15.619C32.8724 15.619 31.5925 15.0888 30.6488 14.1451C29.7052 13.2015 29.175 11.9215 29.175 10.587V0.81698L29.469 0.52298H31.398ZM46.787 0.52298V15.326L46.493 15.619H44.271V0.81698L44.564 0.52298H46.787ZM84.233 0.52298L84.526 0.81698V10.587C84.526 11.2543 84.7911 11.8942 85.2629 12.3661C85.7348 12.8379 86.3747 13.103 87.042 13.103C87.7093 13.103 88.3492 12.8379 88.8211 12.3661C89.2929 11.8942 89.558 11.2543 89.558 10.587V0.81698L89.852 0.52298H91.78L92.074 0.81698V10.587C92.074 11.9215 91.5438 13.2015 90.6002 14.1451C89.6565 15.0888 88.3766 15.619 87.042 15.619C85.7074 15.619 84.4275 15.0888 83.4838 14.1451C82.5402 13.2015 82.01 11.9215 82.01 10.587V0.81698L82.304 0.52298H84.233ZM99.622 0.52298V15.326L99.328 15.619H97.106V0.81698L97.399 0.52298H99.622ZM18.272 3.03998C17.6111 3.04005 16.9567 3.17028 16.3462 3.42325C15.7356 3.67622 15.1809 4.04696 14.7136 4.51432C13.7699 5.45819 13.2399 6.73828 13.24 8.07298C13.2401 9.40768 13.7705 10.6877 14.7143 11.6313C15.6582 12.575 16.9383 13.1051 18.273 13.105C19.6077 13.105 20.8877 12.5748 21.8315 11.631C22.7753 10.6872 23.3055 9.40718 23.3055 8.07248C23.3055 6.73778 22.7753 5.45774 21.8315 4.51397C20.8877 3.57019 19.6077 3.03998 18.273 3.03998H18.272ZM129.813 3.03998C128.478 3.03998 127.198 3.57019 126.254 4.51397C125.311 5.45774 124.781 6.73778 124.781 8.07248C124.781 9.40718 125.311 10.6872 126.254 11.631C127.198 12.5748 128.478 13.105 129.813 13.105C131.148 13.105 132.428 12.5748 133.372 11.631C134.315 10.6872 134.846 9.40718 134.846 8.07248C134.846 6.73778 134.315 5.45774 133.372 4.51397C132.428 3.57019 131.148 3.03998 129.813 3.03998Z" fill="#19110B"/>
</g>
<defs>
<clipPath id="clip0_1_129">
<rect width="154" height="16" fill="white" transform="translate(0 0.22998)"/>
</clipPath>
</defs>
</svg>
